PathFileType	4	(X/Y/Z)	s08c0103.trc
DataRate	CameraRate	NumFrames	NumMarkers	Units	OrigDataRate	OrigDataStartFrame	OrigNumFrames
200	200	4	50	mm	200	250	2000
Frame#	Time	racr			lacr			c7			jug			rlel			rdr			llel			ldr			s2			lic			ric			lasi			rasi			rpsi			lpsi			rgt			lgt			rth1			rth2			rth3			rth4			rlfc			rmfc			rsh1			rsh2			rsh3			rsh4			rlmal			rmmal			rcal			rtoe			rmt5			lth1			lth2			lth4			lth3			llfc			lmfc			llmal			lmmal			lcal			lmt5			lsh1			lsh2			lsh3			lsh4			ltoe			SBIKE			LBIKE			RBIKE			
		X1	Y1	Z1	X2	Y2	Z2	X3	Y3	Z3	X4	Y4	Z4	X5	Y5	Z5	X6	Y6	Z6	X7	Y7	Z7	X8	Y8	Z8	X9	Y9	Z9	X10	Y10	Z10	X11	Y11	Z11	X12	Y12	Z12	X13	Y13	Z13	X14	Y14	Z14	X15	Y15	Z15	X16	Y16	Z16	X17	Y17	Z17	X18	Y18	Z18	X19	Y19	Z19	X20	Y20	Z20	X21	Y21	Z21	X22	Y22	Z22	X23	Y23	Z23	X24	Y24	Z24	X25	Y25	Z25	X26	Y26	Z26	X27	Y27	Z27	X28	Y28	Z28	X29	Y29	Z29	X30	Y30	Z30	X31	Y31	Z31	X32	Y32	Z32	X33	Y33	Z33	X34	Y34	Z34	X35	Y35	Z35	X36	Y36	Z36	X37	Y37	Z37	X38	Y38	Z38	X39	Y39	Z39	X40	Y40	Z40	X41	Y41	Z41	X42	Y42	Z42	X43	Y43	Z43	X44	Y44	Z44	X45	Y45	Z45	X46	Y46	Z46	X47	Y47	Z47	X48	Y48	Z48	X49	Y49	Z49	X50	Y50	Z50	
250	1.2500	525.792443	1349.015625	-58.082048	522.221906	1353.134602	-401.494705	513.383916	1414.667013	-234.051848	484.623424	1260.437357	-225.270942	604.966731	1112.683128	13.563085	806.973356	890.459456	-69.342979	641.765232	1131.162780	-449.269290	816.025365	888.942919	-405.215555	-45.357522	1203.120528	-244.561066	130.410066	1166.857212	-382.730824	114.946850	1201.548235	-77.518332	143.189133	1107.769383	-352.927755	129.461651	1146.389436	-109.753238	-12.675404	1245.474437	-195.977026	-4.025456	1240.301700	-290.246665	29.462701	1115.011711	-33.372947	30.475127	1060.469785	-414.140273	175.295043	1026.521253	-30.928853	262.127989	1007.977372	-32.514588	326.162066	947.768284	-37.869440	278.422743	1038.824361	-45.592242	423.014025	878.268245	-58.152580	405.865205	866.386612	-165.660256	357.727640	765.413352	-28.447259	350.105476	677.289857	-48.564858	299.975731	607.142591	-54.527037	376.239710	673.338786	-80.065668	254.535311	497.046955	-66.889201	268.247521	523.280262	-154.218307	179.350212	452.253319	-109.334462	473.966048	505.548969	-106.360860	392.505026	456.481586	-39.675415	57.428443	926.997953	-431.382199	91.945419	846.673686	-426.295433	126.942821	852.047374	-416.346797	80.495501	758.598103	-420.909792	92.190447	632.465497	-393.646393	85.867352	611.171645	-292.958851	8.088738	217.806620	-394.482537	22.667483	244.261598	-308.165329	-52.213376	166.970842	-355.486242	160.064705	192.047026	-416.989822	65.206102	505.524987	-423.805594	65.869620	421.582580	-402.523639	29.884676	341.172471	-406.619111	83.467388	422.360522	-367.948065	224.498541	250.378812	-347.911547	-188.245742	918.120455	-232.121954	11.104387	80.336752	-425.404776	9.378260	80.066981	-27.168833	
251	1.2550	525.722410	1348.981820	-58.065470	522.185504	1353.098631	-401.536289	513.332762	1414.635189	-234.016120	484.694270	1260.476799	-225.051474	604.936880	1112.642201	13.590017	806.982953	890.474836	-69.319726	641.692827	1131.124650	-449.337042	816.015612	888.940381	-405.196722	-45.362195	1203.103923	-244.530442	130.396208	1166.873784	-382.765711	114.921816	1201.570235	-77.452603	143.156048	1107.790775	-352.986194	129.452912	1146.389328	-109.689214	-12.720241	1245.467837	-195.947015	-4.065117	1240.294264	-290.214231	29.470095	1114.993102	-33.348670	30.451078	1060.482763	-414.151004	175.300868	1026.519603	-30.921329	262.142438	1007.977678	-32.475606	326.180912	947.768401	-37.807951	278.431720	1038.819378	-45.558381	423.021896	878.286259	-58.112651	405.864128	866.380417	-165.656378	357.758295	765.417521	-28.406012	350.093089	677.261802	-48.562130	300.016088	607.143994	-54.488318	376.241909	673.333206	-80.061099	254.558057	497.060314	-66.855120	268.244160	523.253137	-154.198240	179.366041	452.247847	-109.308402	473.996825	505.544129	-106.355398	392.502659	456.490069	-39.652166	57.406629	927.011374	-431.398579	91.922616	846.699381	-426.311072	126.926140	852.065481	-416.357149	80.515865	758.599611	-420.919910	92.201155	632.481466	-393.672547	85.897129	611.177207	-292.957928	8.083354	217.806445	-394.471780	22.689127	244.287403	-308.141655	-52.232681	166.999994	-355.504734	160.063161	192.054788	-416.992365	65.196770	505.529067	-423.806811	65.858814	421.564837	-402.501926	29.873315	341.187296	-406.647152	83.469497	422.380938	-367.959730	224.482211	250.378678	-347.915107	-188.404700	918.110128	-232.232326	11.105820	80.345464	-425.413623	9.421801	80.076108	-27.165608	
252	1.2600	525.696356	1348.947300	-58.046596	522.139391	1353.039102	-401.515567	513.269584	1414.599494	-233.975819	484.626229	1260.420346	-225.058708	604.902157	1112.619642	13.608643	806.991013	890.482459	-69.297222	641.622290	1131.075661	-449.419780	816.017646	888.939730	-405.186307	-45.451838	1203.037215	-244.413354	130.341735	1166.889516	-382.752150	114.919050	1201.547353	-77.412990	143.100463	1107.805906	-352.971300	129.438172	1146.382031	-109.685727	-12.747253	1245.432027	-195.905817	-4.103467	1240.304718	-290.173288	29.450949	1114.984750	-33.339719	30.412106	1060.488490	-414.136691	175.293970	1026.482322	-30.896491	262.152900	1007.970535	-32.460344	326.199070	947.764077	-37.767791	278.453804	1038.820034	-45.552588	423.036830	878.280398	-58.073925	405.855725	866.371432	-165.634736	357.777500	765.415531	-28.371928	350.115532	677.258549	-48.541164	300.059968	607.156810	-54.410704	376.242345	673.338374	-80.040330	254.590345	497.049263	-66.828364	268.250371	523.248436	-154.221682	179.373020	452.234973	-109.292251	474.010312	505.538008	-106.342166	392.537883	456.495090	-39.638440	57.400787	927.028005	-431.402659	91.939312	846.715516	-426.308283	126.928864	852.085495	-416.365706	80.520737	758.614073	-420.920273	92.198793	632.486786	-393.671274	85.890686	611.192571	-292.960006	8.062033	217.812985	-394.484206	22.702808	244.290831	-308.111194	-52.241683	166.993497	-355.488689	160.060555	192.067254	-416.986597	65.204144	505.538072	-423.802710	65.860008	421.593933	-402.519721	29.877225	341.175984	-406.626423	83.475209	422.389354	-367.976203	224.469301	250.402535	-347.914142	-188.402801	918.088892	-232.255138	11.098933	80.318660	-425.406085	9.440648	80.076272	-27.156407	
253	1.2650	525.622077	1348.905610	-58.054796	522.094750	1352.989271	-401.503334	513.206669	1414.575354	-233.956533	484.555484	1260.348575	-225.011259	604.859176	1112.598470	13.648368	807.000995	890.491615	-69.281536	641.553192	1131.032933	-449.513453	815.986948	888.937362	-405.176987	-45.485327	1203.019418	-244.378970	130.302476	1166.913999	-382.789988	114.884610	1201.552869	-77.378921	143.063882	1107.843733	-353.019901	129.373182	1146.395079	-109.594095	-12.809314	1245.436870	-195.879797	-4.150411	1240.297097	-290.133275	29.534288	1114.970080	-33.218097	30.361859	1060.509379	-414.150300	175.283064	1026.467338	-30.877025	262.160423	1007.957223	-32.414417	326.208068	947.752053	-37.736759	278.430778	1038.783826	-45.530990	423.035812	878.288563	-58.052393	405.827841	866.357515	-165.611477	357.794649	765.396881	-28.345150	350.089356	677.242295	-48.520226	300.073696	607.149074	-54.408816	376.238305	673.343695	-80.038981	254.613187	497.050645	-66.811755	268.240286	523.234654	-154.204665	179.386200	452.217289	-109.290201	474.040405	505.537043	-106.301800	392.571107	456.476330	-39.625754	57.384291	927.040136	-431.412296	91.926138	846.731830	-426.321630	126.929615	852.125724	-416.388099	80.525230	758.630246	-420.928275	92.187040	632.497579	-393.664850	85.899026	611.199068	-292.956630	8.041309	217.831772	-394.481843	22.711287	244.312566	-308.116181	-52.237749	167.009782	-355.497996	160.034292	192.069657	-416.993430	65.172274	505.555399	-423.822982	65.842858	421.577268	-402.523903	29.860937	341.214739	-406.646160	83.457347	422.415596	-367.996065	224.474290	250.399234	-347.910857	-188.436156	918.057901	-232.206581	11.105058	80.321899	-425.428872	9.435368	80.087662	-27.134098	
